<svg width="184" height="37" viewBox="0 0 184 37" fill="none" xmlns="http://www.w3.org/2000/svg">
<path d="M40.02 2.41C38.1 5.21 36.07 8.48 33.93 12.22C34.47 12.5 34.89 12.77 35.19 13.03C35.49 13.27 35.57 13.5 35.43 13.72C35.27 13.94 35.09 13.96 34.89 13.78C34.59 13.52 34.14 13.23 33.54 12.91C32.74 14.35 32.06 15.64 31.5 16.78C30.12 19.6 29.43 21.69 29.43 23.05C29.43 24.21 29.96 24.79 31.02 24.79C31.98 24.79 32.79 24.4 33.45 23.62C33.61 23.42 33.74 23.34 33.84 23.38C34.04 23.42 34.01 23.61 33.75 23.95C33.51 24.29 33.1 24.62 32.52 24.94C31.82 25.32 31.15 25.51 30.51 25.51C30.09 25.51 29.7 25.43 29.34 25.27C28.1 24.65 27.48 23.69 27.48 22.39C27.48 21.35 27.82 20.01 28.5 18.37C29.02 17.13 30.22 15.08 32.1 12.22C30.7 11.64 29.33 11.19 27.99 10.87C26.23 12.83 24.46 14.8 22.68 16.78C20.5 19.14 18.53 20.97 16.77 22.27C14.45 23.97 12.1 25.07 9.72 25.57C9.08 25.71 8.39 25.78 7.65 25.78C5.85 25.78 4.36 25.39 3.18 24.61C1.7 23.65 0.94 22.21 0.9 20.29C0.86 17.73 2.56 15.4 6 13.3C9.14 11.38 12.76 10.17 16.86 9.67C18.36 9.47 19.83 9.37 21.27 9.37C23.43 9.37 25.51 9.58 27.51 10C32.37 5.32 35.29 2.66 36.27 2.02C37.39 1.26 38.32 0.879999 39.06 0.879999C39.86 0.879999 40.26 1.17 40.26 1.75C40.26 1.97 40.18 2.19 40.02 2.41ZM39.39 1.54C39.31 1.5 39.2 1.48 39.06 1.48C38.62 1.48 38 1.7 37.2 2.14C35.88 2.9 33.01 5.6 28.59 10.24C29.97 10.58 31.28 11.02 32.52 11.56C33.8 9.64 35.29 7.56 36.99 5.32C38.25 3.66 39.05 2.63 39.39 2.23C39.67 1.91 39.67 1.68 39.39 1.54ZM26.85 10.6C25.07 10.24 23.22 10.06 21.3 10.06C19.34 10.06 17.3 10.25 15.18 10.63C11.86 11.25 8.87 12.37 6.21 13.99C3.21 15.83 1.71 17.76 1.71 19.78C1.71 19.98 1.72 20.19 1.74 20.41C2.1 22.49 3.65 23.53 6.39 23.53C7.57 23.53 8.8 23.34 10.08 22.96C12.36 22.3 14.57 21.21 16.71 19.69C18.29 18.61 20.2 16.99 22.44 14.83L26.85 10.6ZM51.1943 14.05C51.5343 13.85 51.6143 13.72 51.4343 13.66C51.2743 13.58 51.0443 13.61 50.7443 13.75C50.1243 13.91 49.4643 14.27 48.7643 14.83C48.0643 15.37 47.3443 16.03 46.6043 16.81C45.8843 17.57 45.1643 18.39 44.4443 19.27C43.7243 20.13 43.0343 20.95 42.3743 21.73C41.7143 22.49 41.1043 23.16 40.5443 23.74C39.9843 24.32 39.5143 24.7 39.1343 24.88C38.6543 25.1 38.1743 25.17 37.6943 25.09C37.2143 25.03 36.7743 24.86 36.3743 24.58C35.9943 24.3 35.6843 23.94 35.4443 23.5C35.1843 23.06 35.0643 22.58 35.0843 22.06C35.1043 21.66 35.1843 21.23 35.3243 20.77C35.4643 20.31 35.7943 19.85 36.3143 19.39C36.5743 19.21 36.8543 19.07 37.1543 18.97C37.4543 18.87 37.7243 18.84 37.9643 18.88C38.2243 18.9 38.4343 19.02 38.5943 19.24C38.7543 19.44 38.8343 19.77 38.8343 20.23C38.8343 20.55 38.7143 20.87 38.4743 21.19C38.2543 21.49 37.9143 21.64 37.4543 21.64C37.2343 21.64 37.0343 21.7 36.8543 21.82C36.6943 21.94 36.5543 22.1 36.4343 22.3C36.2743 22.58 36.2543 22.9 36.3743 23.26C36.5143 23.62 36.7343 23.92 37.0343 24.16C37.3543 24.38 37.7443 24.48 38.2043 24.46C38.6643 24.44 39.1543 24.17 39.6743 23.65C40.2743 23.03 40.9143 22.32 41.5943 21.52C42.2743 20.7 42.9643 19.88 43.6643 19.06C44.3843 18.22 45.1043 17.42 45.8243 16.66C46.5643 15.88 47.2843 15.21 47.9843 14.65C48.6843 14.07 49.3643 13.65 50.0243 13.39C50.7043 13.11 51.3443 13.06 51.9443 13.24C52.0043 13.2 52.0943 13.18 52.2143 13.18C52.3343 13.16 52.4543 13.16 52.5743 13.18C52.6943 13.18 52.7843 13.2 52.8443 13.24C52.9243 13.28 52.9443 13.34 52.9043 13.42C52.6043 13.92 52.1643 14.57 51.5843 15.37C51.0243 16.17 50.3443 17.17 49.5443 18.37C48.1243 20.57 47.3543 22.14 47.2343 23.08C47.1343 23.68 47.3043 23.98 47.7443 23.98C47.9843 23.98 48.3143 23.86 48.7343 23.62C49.1743 23.38 49.5943 23.09 49.9943 22.75C51.4343 21.61 52.7143 20.45 53.8343 19.27C53.9743 19.07 54.1443 18.97 54.3443 18.97C54.5043 18.97 54.5943 19.04 54.6143 19.18C54.6543 19.34 54.5943 19.5 54.4343 19.66C53.6143 20.68 52.4043 21.79 50.8043 22.99C49.9443 23.73 49.1343 24.27 48.3743 24.61C47.6143 24.95 47.0043 25.09 46.5443 25.03C45.4643 24.89 44.9243 24.27 44.9243 23.17C44.9243 23.07 44.9243 22.97 44.9243 22.87C44.9443 22.75 44.9643 22.64 44.9843 22.54C45.2043 21.62 46.1443 20.09 47.8043 17.95C48.1043 17.57 48.4443 17.15 48.8243 16.69C49.2243 16.23 49.6743 15.72 50.1743 15.16C50.4343 14.88 50.6243 14.67 50.7443 14.53C50.8843 14.37 51.0343 14.21 51.1943 14.05ZM66.2079 19.24C66.4079 19.4 66.3579 19.66 66.0579 20.02C65.8979 20.3 64.8579 21.2 62.9379 22.72C60.4179 24.5 58.1479 25.39 56.1279 25.39C55.3679 25.39 54.7279 25.23 54.2079 24.91C53.3879 24.39 52.9779 23.59 52.9779 22.51C52.9779 20.73 53.9279 18.86 55.8279 16.9C56.9879 15.72 58.2779 14.75 59.6979 13.99C61.1179 13.23 62.3079 12.85 63.2679 12.85C64.1679 12.85 64.6179 13.12 64.6179 13.66C64.6179 14.2 64.1579 14.98 63.2379 16C62.4179 16.88 61.5579 17.64 60.6579 18.28C59.1179 19.38 57.4879 20.11 55.7679 20.47C55.5679 21.09 55.4679 21.64 55.4679 22.12C55.4679 22.88 55.7179 23.44 56.2179 23.8C56.6579 24.1 57.1779 24.25 57.7779 24.25C59.0979 24.25 60.6679 23.6 62.4879 22.3C64.0679 21 65.0579 20.09 65.4579 19.57C65.7979 19.21 66.0479 19.1 66.2079 19.24ZM63.3879 13.51C62.8479 13.51 62.0679 13.81 61.0479 14.41C59.9679 15.05 58.9679 15.84 58.0479 16.78C57.2679 17.58 56.6179 18.55 56.0979 19.69C57.4579 19.33 58.8279 18.67 60.2079 17.71C61.0879 17.09 61.9179 16.38 62.6979 15.58C63.4979 14.78 63.8979 14.2 63.8979 13.84C63.8979 13.62 63.7279 13.51 63.3879 13.51ZM68.8751 23.35C68.8351 22.55 69.6051 21.12 71.1851 19.06C70.8251 19.18 70.4051 19.32 69.9251 19.48C69.4651 19.62 69.0151 19.74 68.5751 19.84C68.1551 19.92 67.7751 19.95 67.4351 19.93C67.1151 19.89 66.9051 19.73 66.8051 19.45C66.1451 20.39 65.4651 21.33 64.7651 22.27C64.0851 23.19 63.3751 24.12 62.6351 25.06C62.5351 25.08 62.4251 25.08 62.3051 25.06C62.1851 25.04 62.0651 25.01 61.9451 24.97C61.8251 24.93 61.7251 24.88 61.6451 24.82C61.5651 24.76 61.5251 24.7 61.5251 24.64C61.5451 24.34 62.9551 22.31 65.7551 18.55C66.9751 16.87 67.9151 15.6 68.5751 14.74C69.2551 13.86 69.6551 13.37 69.7751 13.27C69.8551 13.19 70.1051 13.15 70.5251 13.15C70.9051 13.13 71.1151 13.17 71.1551 13.27C71.1951 13.39 70.7751 14.04 69.8951 15.22L68.0351 17.77C68.1951 17.89 68.3151 18.08 68.3951 18.34C68.0951 18.74 68.0351 19 68.2151 19.12C68.3951 19.22 68.6751 19.26 69.0551 19.24C69.4551 19.2 69.8951 19.11 70.3751 18.97C70.8551 18.83 71.2451 18.7 71.5451 18.58C71.7051 18.38 71.8851 18.16 72.0851 17.92C73.1251 16.52 74.2851 14.98 75.5651 13.3C75.7251 13.2 75.9151 13.15 76.1351 13.15C76.3951 13.13 76.5251 13.2 76.5251 13.36C76.5251 13.54 76.1551 14.17 75.4151 15.25C74.2351 16.93 73.5251 17.97 73.2851 18.37C71.8651 20.57 71.0951 22.14 70.9751 23.08C70.8751 23.68 71.0451 23.98 71.4851 23.98C72.2451 23.98 73.6451 23.15 75.6851 21.49C77.5051 20.03 78.2451 19.4 77.9051 19.6C77.9851 19.5 78.0951 19.45 78.2351 19.45C78.4751 19.45 78.5951 19.55 78.5951 19.75C78.5951 19.87 78.5251 20 78.3851 20.14C78.4851 20.2 77.6151 20.92 75.7751 22.3C73.1351 24.26 71.3051 25.17 70.2851 25.03C69.2251 24.89 68.7551 24.33 68.8751 23.35ZM92.5929 20.2C92.8129 20.22 92.0029 20.92 90.1629 22.3C87.5229 24.26 85.6929 25.17 84.6729 25.03C83.5929 24.89 83.0529 24.27 83.0529 23.17C83.0529 22.91 83.0929 22.64 83.1729 22.36C81.5729 24.2 80.1829 25.09 79.0029 25.03C77.7629 24.97 77.1429 24.21 77.1429 22.75C77.1429 21.39 77.7829 19.9 79.0629 18.28C80.3429 16.66 81.8629 15.32 83.6229 14.26C85.2429 13.32 86.6129 12.85 87.7329 12.85C88.2129 12.85 88.5929 12.96 88.8729 13.18C89.1529 13.4 89.2629 13.74 89.2029 14.2C89.6629 13.74 89.9429 13.47 90.0429 13.39C90.1429 13.31 90.2829 13.26 90.4629 13.24C90.6629 13.2 90.8229 13.2 90.9429 13.24C91.0629 13.26 91.0929 13.32 91.0329 13.42C90.3729 14.36 89.2529 16.01 87.6729 18.37C86.2529 20.57 85.4829 22.14 85.3629 23.08C85.2629 23.68 85.4329 23.98 85.8729 23.98C86.6329 23.98 88.0329 23.15 90.0729 21.49C91.8929 20.03 92.5729 19.42 92.1129 19.66C92.1929 19.56 92.3029 19.51 92.4429 19.51C92.6829 19.51 92.7329 19.74 92.5929 20.2ZM88.1529 15.46C88.3929 15.16 88.5129 14.81 88.5129 14.41C88.5129 13.81 88.2229 13.51 87.6429 13.51C87.0229 13.51 86.2329 13.82 85.2729 14.44C84.2329 15.1 83.2329 15.98 82.2729 17.08C80.1129 19.52 79.0329 21.54 79.0329 23.14C79.0329 23.82 79.2629 24.16 79.7229 24.16C80.2429 24.16 81.0629 23.62 82.1829 22.54C83.1229 21.64 83.9729 20.68 84.7329 19.66C85.6929 18.38 86.8329 16.98 88.1529 15.46ZM142.032 2.41C140.112 5.21 138.082 8.48 135.942 12.22C136.482 12.5 136.902 12.77 137.202 13.03C137.502 13.27 137.582 13.5 137.442 13.72C137.282 13.94 137.102 13.96 136.902 13.78C136.602 13.52 136.152 13.23 135.552 12.91C134.752 14.35 134.072 15.64 133.512 16.78C132.132 19.6 131.442 21.69 131.442 23.05C131.442 24.21 131.972 24.79 133.032 24.79C133.992 24.79 134.802 24.4 135.462 23.62C135.622 23.42 135.752 23.34 135.852 23.38C136.052 23.42 136.022 23.61 135.762 23.95C135.522 24.29 135.112 24.62 134.532 24.94C133.832 25.32 133.162 25.51 132.522 25.51C132.102 25.51 131.712 25.43 131.352 25.27C130.112 24.65 129.492 23.69 129.492 22.39C129.492 21.35 129.832 20.01 130.512 18.37C131.032 17.13 132.232 15.08 134.112 12.22C132.712 11.64 131.342 11.19 130.002 10.87C128.242 12.83 126.472 14.8 124.692 16.78C122.512 19.14 120.542 20.97 118.782 22.27C116.462 23.97 114.112 25.07 111.732 25.57C111.092 25.71 110.402 25.78 109.662 25.78C107.862 25.78 106.372 25.39 105.192 24.61C103.712 23.65 102.952 22.21 102.912 20.29C102.872 17.73 104.572 15.4 108.012 13.3C111.152 11.38 114.772 10.17 118.872 9.67C120.372 9.47 121.842 9.37 123.282 9.37C125.442 9.37 127.522 9.58 129.522 10C134.382 5.32 137.302 2.66 138.282 2.02C139.402 1.26 140.332 0.879999 141.072 0.879999C141.872 0.879999 142.272 1.17 142.272 1.75C142.272 1.97 142.192 2.19 142.032 2.41ZM141.402 1.54C141.322 1.5 141.212 1.48 141.072 1.48C140.632 1.48 140.012 1.7 139.212 2.14C137.892 2.9 135.022 5.6 130.602 10.24C131.982 10.58 133.292 11.02 134.532 11.56C135.812 9.64 137.302 7.56 139.002 5.32C140.262 3.66 141.062 2.63 141.402 2.23C141.682 1.91 141.682 1.68 141.402 1.54ZM128.862 10.6C127.082 10.24 125.232 10.06 123.312 10.06C121.352 10.06 119.312 10.25 117.192 10.63C113.872 11.25 110.882 12.37 108.222 13.99C105.222 15.83 103.722 17.76 103.722 19.78C103.722 19.98 103.732 20.19 103.752 20.41C104.112 22.49 105.662 23.53 108.402 23.53C109.582 23.53 110.812 23.34 112.092 22.96C114.372 22.3 116.582 21.21 118.722 19.69C120.302 18.61 122.212 16.99 124.452 14.83L128.862 10.6ZM152.756 19.9C153.176 19.82 152.156 20.72 149.696 22.6C148.136 23.8 146.266 24.79 144.086 25.57C142.606 27.89 141.266 29.83 140.066 31.39C138.866 32.95 137.576 34.15 136.196 34.99C135.036 35.69 134.016 36.04 133.136 36.04C132.236 36.04 131.786 35.62 131.786 34.78C131.786 34.1 132.076 33.28 132.656 32.32C133.216 31.38 133.996 30.46 134.996 29.56C136.876 27.92 139.436 26.51 142.676 25.33C143.296 24.13 143.786 23.12 144.146 22.3C142.426 24.18 140.956 25.09 139.736 25.03C138.496 24.97 137.876 24.21 137.876 22.75C137.876 21.39 138.516 19.9 139.796 18.28C141.076 16.66 142.596 15.32 144.356 14.26C145.976 13.32 147.346 12.85 148.466 12.85C148.946 12.85 149.326 12.96 149.606 13.18C149.886 13.4 149.996 13.74 149.936 14.2C150.396 13.74 150.676 13.47 150.776 13.39C150.876 13.31 151.016 13.26 151.196 13.24C151.396 13.2 151.556 13.2 151.676 13.24C151.796 13.26 151.826 13.32 151.766 13.42C151.486 13.82 149.146 17.52 144.746 24.52C146.786 23.66 148.336 22.82 149.396 22C151.276 20.56 152.206 19.72 152.186 19.48C152.306 19.36 152.496 19.5 152.756 19.9ZM148.886 15.46C149.126 15.16 149.246 14.81 149.246 14.41C149.246 13.81 148.956 13.51 148.376 13.51C147.756 13.51 146.966 13.82 146.006 14.44C144.966 15.1 143.966 15.98 143.006 17.08C140.846 19.52 139.766 21.54 139.766 23.14C139.766 23.82 139.996 24.16 140.456 24.16C140.976 24.16 141.796 23.62 142.916 22.54C143.856 21.64 144.706 20.68 145.466 19.66C146.426 18.38 147.566 16.98 148.886 15.46ZM142.226 26.23C139.686 27.21 137.616 28.39 136.016 29.77C135.236 30.47 134.576 31.24 134.036 32.08C133.496 32.94 133.226 33.65 133.226 34.21C133.226 34.79 133.476 35.08 133.976 35.08C134.556 35.08 135.326 34.74 136.286 34.06C137.346 33.28 138.316 32.31 139.196 31.15C140.096 29.99 141.106 28.35 142.226 26.23ZM169.827 13.42C169.487 13.92 169.017 14.57 168.417 15.37C167.817 16.17 167.097 17.17 166.257 18.37C164.737 20.55 163.897 22.12 163.737 23.08C163.617 23.68 163.777 23.98 164.217 23.98C164.457 23.98 164.787 23.86 165.207 23.62C165.647 23.38 166.077 23.09 166.497 22.75C167.257 22.17 167.967 21.59 168.627 21.01C169.307 20.43 169.927 19.85 170.487 19.27C170.667 19.07 170.847 18.97 171.027 18.97C171.187 18.97 171.267 19.04 171.267 19.18C171.307 19.34 171.247 19.5 171.087 19.66C170.207 20.68 168.947 21.79 167.307 22.99C166.407 23.73 165.567 24.27 164.787 24.61C164.027 24.95 163.417 25.09 162.957 25.03C161.877 24.89 161.367 24.27 161.427 23.17C161.427 22.97 161.457 22.76 161.517 22.54C161.717 21.8 162.327 20.77 163.347 19.45C162.947 19.61 162.537 19.72 162.117 19.78C161.697 19.84 161.297 19.83 160.917 19.75C160.617 19.79 160.347 19.86 160.107 19.96C159.887 20.04 159.687 20.15 159.507 20.29C159.327 20.41 159.147 20.55 158.967 20.71C158.807 20.87 158.627 21.04 158.427 21.22C157.887 21.84 157.417 22.36 157.017 22.78C156.637 23.18 156.287 23.51 155.967 23.77C155.667 24.03 155.387 24.25 155.127 24.43C154.867 24.59 154.597 24.74 154.317 24.88C153.857 25.1 153.397 25.17 152.937 25.09C152.497 25.03 152.097 24.86 151.737 24.58C151.377 24.3 151.097 23.94 150.897 23.5C150.677 23.06 150.587 22.57 150.627 22.03C150.667 21.63 150.767 21.2 150.927 20.74C151.067 20.26 151.387 19.79 151.887 19.33C152.147 19.15 152.417 19.01 152.697 18.91C152.977 18.81 153.237 18.78 153.477 18.82C153.717 18.86 153.907 18.99 154.047 19.21C154.207 19.41 154.277 19.73 154.257 20.17C154.237 20.51 154.107 20.84 153.867 21.16C153.647 21.46 153.317 21.61 152.877 21.61C152.657 21.61 152.467 21.67 152.307 21.79C152.147 21.91 152.007 22.07 151.887 22.27C151.747 22.55 151.727 22.88 151.827 23.26C151.927 23.62 152.117 23.92 152.397 24.16C152.677 24.38 153.027 24.48 153.447 24.46C153.887 24.42 154.367 24.14 154.887 23.62C155.187 23.3 155.437 23.04 155.637 22.84C155.857 22.62 156.057 22.41 156.237 22.21C156.437 22.01 156.647 21.8 156.867 21.58C157.087 21.36 157.357 21.08 157.677 20.74C157.757 20.66 157.877 20.56 158.037 20.44C158.197 20.3 158.367 20.16 158.547 20.02C158.747 19.88 158.947 19.74 159.147 19.6C159.367 19.46 159.567 19.34 159.747 19.24C159.267 18.88 158.987 18.36 158.907 17.68C158.847 17.24 158.867 16.82 158.967 16.42C159.087 16.02 159.267 15.61 159.507 15.19C159.847 14.73 160.217 14.32 160.617 13.96C161.037 13.6 161.507 13.3 162.027 13.06C163.127 12.64 164.107 12.55 164.967 12.79C165.967 13.13 166.547 13.81 166.707 14.83V15.49C166.747 15.45 166.787 15.4 166.827 15.34C166.887 15.28 166.947 15.22 167.007 15.16C167.287 14.88 167.487 14.67 167.607 14.53C167.747 14.37 167.907 14.21 168.087 14.05C168.107 14.01 168.157 13.94 168.237 13.84C168.337 13.74 168.437 13.64 168.537 13.54C168.637 13.44 168.717 13.36 168.777 13.3C168.857 13.24 168.887 13.22 168.867 13.24C168.927 13.2 169.017 13.18 169.137 13.18C169.277 13.16 169.397 13.16 169.497 13.18C169.617 13.2 169.707 13.23 169.767 13.27C169.847 13.31 169.867 13.36 169.827 13.42ZM165.597 16.54C165.757 16.18 165.867 15.85 165.927 15.55C166.007 15.25 166.027 14.94 165.987 14.62C165.967 14.28 165.867 14.01 165.687 13.81C165.507 13.61 165.307 13.46 165.087 13.36C164.447 13.18 163.747 13.31 162.987 13.75C162.667 13.95 162.327 14.29 161.967 14.77C161.607 15.25 161.307 15.77 161.067 16.33C160.847 16.87 160.737 17.4 160.737 17.92C160.757 18.44 160.987 18.83 161.427 19.09C162.287 19.37 163.247 19.05 164.307 18.13L165.597 16.54ZM174.285 23.35C174.245 22.55 175.015 21.12 176.595 19.06C176.235 19.18 175.815 19.32 175.335 19.48C174.875 19.62 174.425 19.74 173.985 19.84C173.565 19.92 173.185 19.95 172.845 19.93C172.525 19.89 172.315 19.73 172.215 19.45C171.555 20.39 170.875 21.33 170.175 22.27C169.495 23.19 168.785 24.12 168.045 25.06C167.945 25.08 167.835 25.08 167.715 25.06C167.595 25.04 167.475 25.01 167.355 24.97C167.235 24.93 167.135 24.88 167.055 24.82C166.975 24.76 166.935 24.7 166.935 24.64C166.955 24.34 168.365 22.31 171.165 18.55C172.385 16.87 173.325 15.6 173.985 14.74C174.665 13.86 175.065 13.37 175.185 13.27C175.265 13.19 175.515 13.15 175.935 13.15C176.315 13.13 176.525 13.17 176.565 13.27C176.605 13.39 176.185 14.04 175.305 15.22L173.445 17.77C173.605 17.89 173.725 18.08 173.805 18.34C173.505 18.74 173.445 19 173.625 19.12C173.805 19.22 174.085 19.26 174.465 19.24C174.865 19.2 175.305 19.11 175.785 18.97C176.265 18.83 176.655 18.7 176.955 18.58C177.115 18.38 177.295 18.16 177.495 17.92C178.535 16.52 179.695 14.98 180.975 13.3C181.135 13.2 181.325 13.15 181.545 13.15C181.805 13.13 181.935 13.2 181.935 13.36C181.935 13.54 181.565 14.17 180.825 15.25C179.645 16.93 178.935 17.97 178.695 18.37C177.275 20.57 176.505 22.14 176.385 23.08C176.285 23.68 176.455 23.98 176.895 23.98C177.655 23.98 179.055 23.15 181.095 21.49C182.915 20.03 183.655 19.4 183.315 19.6C183.395 19.5 183.505 19.45 183.645 19.45C183.885 19.45 184.005 19.55 184.005 19.75C184.005 19.87 183.935 20 183.795 20.14C183.895 20.2 183.025 20.92 181.185 22.3C178.545 24.26 176.715 25.17 175.695 25.03C174.635 24.89 174.165 24.33 174.285 23.35Z" fill="#F7F6F1"/>
</svg>
